<svg width="206" height="36" viewBox="0 0 206 36" fill="none" xmlns="http://www.w3.org/2000/svg">
<path d="M76.6836 29.1098C74.0861 29.1098 72.0543 28.5697 70.6141 27.5152C69.1739 26.4608 68.4281 24.892 68.4023 22.8345L72.2086 21.7801C72.2344 23.1689 72.6716 24.1719 73.546 24.7891C74.4204 25.4321 75.5263 25.7407 76.8637 25.7407C78.0981 25.7407 79.0497 25.5349 79.7184 25.0977C80.3871 24.6605 80.7471 24.1204 80.7471 23.4518C80.7471 22.9374 80.5414 22.5259 80.1556 22.1915C79.7698 21.8572 79.2297 21.6 78.5611 21.3686C77.8924 21.1628 77.1208 20.9571 76.2721 20.7514C75.3463 20.5199 74.4204 20.2627 73.5203 20.0055C72.6201 19.7483 71.7971 19.3883 71.077 18.9511C70.3569 18.5139 69.7654 17.948 69.3282 17.2536C68.891 16.5592 68.6852 15.6848 68.6852 14.6561C68.6852 12.8558 69.3539 11.4413 70.717 10.3611C72.0543 9.30667 73.9318 8.7666 76.3236 8.7666C77.9181 8.7666 79.3069 9.02376 80.4899 9.51241C81.673 10.0011 82.5731 10.7212 83.2161 11.6214C83.859 12.5215 84.1934 13.6273 84.1677 14.9132L80.2842 15.8391C80.3099 14.6047 79.9499 13.6788 79.2555 13.0615C78.5354 12.4186 77.5581 12.11 76.2721 12.11C75.1405 12.11 74.2918 12.3157 73.6746 12.7529C73.0574 13.1644 72.7487 13.7045 72.7487 14.3475C72.7487 14.8875 72.9545 15.3248 73.366 15.6591C73.7775 15.9935 74.3433 16.2763 75.0377 16.4821C75.7321 16.6878 76.5293 16.8936 77.378 17.0993C78.2267 17.305 79.0754 17.5366 79.9756 17.7937C80.85 18.0509 81.673 18.4109 82.3931 18.8482C83.1389 19.2854 83.7304 19.8512 84.1934 20.5713C84.6563 21.2914 84.8621 22.1915 84.8621 23.2717C84.8621 25.0977 84.1419 26.538 82.7274 27.5667C81.2872 28.5697 79.2812 29.1098 76.6836 29.1098Z" fill="url(#paint0_linear_10168_13697)"/>
<path d="M91.3155 29.1094C90.0296 29.1094 88.9494 28.7493 88.1007 28.0292C87.2263 27.3091 86.7891 26.229 86.7891 24.7888C86.7891 23.76 87.0205 22.937 87.4577 22.3198C87.8949 21.7025 88.4865 21.2139 89.2066 20.8796C89.9267 20.5452 90.6982 20.288 91.5212 20.1337C92.3442 19.9794 93.1158 19.8509 93.8616 19.7223C95.0189 19.5422 95.8162 19.3622 96.2791 19.1822C96.7163 19.0021 96.9478 18.642 96.9478 18.1277C96.9478 17.5362 96.742 17.0475 96.3048 16.6617C95.8933 16.276 95.2504 16.096 94.4274 16.096C93.6301 16.096 92.91 16.3017 92.2413 16.7389C91.5727 17.1761 91.1869 17.8705 91.0326 18.8735L87.252 18.0506C87.4577 16.7904 87.8949 15.7616 88.5893 15.0158C89.2837 14.2443 90.1324 13.6784 91.1612 13.3184C92.1899 12.9583 93.2958 12.7783 94.4788 12.7783C96.8192 12.7783 98.5166 13.3698 99.5453 14.5786C100.574 15.7874 101.088 17.4848 101.088 19.7223V22.4227C101.088 24.5059 101.166 26.6148 101.32 28.7237H97.565C97.5136 28.1321 97.4621 27.4891 97.4364 26.8205C97.4107 26.1518 97.385 25.4317 97.3593 24.6858H96.9478C96.6135 25.9203 95.9448 26.9748 94.9675 27.8235C93.9902 28.6722 92.7814 29.1094 91.3155 29.1094ZM93.0643 25.9975C93.5787 25.9975 94.0931 25.8689 94.6331 25.6117C95.1732 25.3545 95.6361 24.9688 96.0734 24.4544C96.5106 23.94 96.8192 23.2971 96.9992 22.4998L96.9735 21.1368C96.4334 21.3939 95.8419 21.5739 95.1475 21.6768C94.4788 21.7797 93.8102 21.9083 93.1672 22.0369C92.5242 22.1655 92.0099 22.3712 91.5727 22.6799C91.1612 22.9885 90.9554 23.4514 90.9554 24.0944C90.9554 24.6859 91.1612 25.1488 91.5469 25.4831C91.9584 25.8175 92.4471 25.9975 93.0643 25.9975Z" fill="url(#paint1_linear_10168_13697)"/>
<path d="M104.305 28.672V7.7373H108.497V28.672H104.305Z" fill="url(#paint2_linear_10168_13697)"/>
<path d="M115.62 29.1094C114.334 29.1094 113.254 28.7493 112.405 28.0292C111.531 27.3091 111.094 26.229 111.094 24.7888C111.094 23.76 111.325 22.937 111.762 22.3198C112.2 21.7025 112.791 21.2139 113.511 20.8796C114.231 20.5452 115.003 20.288 115.826 20.1337C116.649 19.9794 117.42 19.8509 118.166 19.7223C119.324 19.5422 120.121 19.3622 120.584 19.1822C121.021 19.0021 121.252 18.642 121.252 18.1277C121.252 17.5362 121.047 17.0475 120.61 16.6617C120.198 16.276 119.555 16.096 118.732 16.096C117.935 16.096 117.215 16.3017 116.546 16.7389C115.877 17.1761 115.492 17.8705 115.337 18.8735L111.557 18.0506C111.762 16.7904 112.2 15.7616 112.894 15.0158C113.588 14.2443 114.437 13.6784 115.466 13.3184C116.495 12.9583 117.6 12.7783 118.784 12.7783C121.124 12.7783 122.821 13.3698 123.85 14.5786C124.879 15.7874 125.393 17.4848 125.393 19.7223V22.4227C125.393 24.5059 125.47 26.6148 125.625 28.7237H121.87C121.818 28.1321 121.767 27.4891 121.741 26.8205C121.715 26.1518 121.69 25.4317 121.664 24.6858H121.252C120.918 25.9203 120.249 26.9748 119.272 27.8235C118.295 28.6722 117.086 29.1094 115.62 29.1094ZM117.369 25.9975C117.883 25.9975 118.398 25.8689 118.938 25.6117C119.478 25.3545 119.941 24.9688 120.378 24.4544C120.815 23.94 121.124 23.2971 121.304 22.4998L121.278 21.1368C120.738 21.3939 120.147 21.5739 119.452 21.6768C118.784 21.7797 118.115 21.9083 117.472 22.0369C116.829 22.1655 116.315 22.3712 115.877 22.6799C115.466 22.9885 115.26 23.4514 115.26 24.0944C115.26 24.6859 115.466 25.1488 115.852 25.4831C116.263 25.8175 116.752 25.9975 117.369 25.9975Z" fill="url(#paint3_linear_10168_13697)"/>
<path d="M132.362 29.1094C131.076 29.1094 129.996 28.7493 129.148 28.0292C128.273 27.3091 127.836 26.229 127.836 24.7888C127.836 23.76 128.067 22.937 128.505 22.3198C128.942 21.7025 129.533 21.2139 130.253 20.8796C130.974 20.5452 131.745 20.288 132.568 20.1337C133.391 19.9794 134.163 19.8509 134.908 19.7223C136.066 19.5422 136.863 19.3622 137.326 19.1822C137.763 19.0021 137.995 18.642 137.995 18.1277C137.995 17.5362 137.789 17.0475 137.352 16.6617C136.94 16.276 136.297 16.096 135.474 16.096C134.677 16.096 133.957 16.3017 133.288 16.7389C132.62 17.1761 132.234 17.8705 132.079 18.8735L128.299 18.0506C128.505 16.7904 128.942 15.7616 129.636 15.0158C130.331 14.2443 131.179 13.6784 132.208 13.3184C133.237 12.9583 134.343 12.7783 135.526 12.7783C137.866 12.7783 139.563 13.3698 140.592 14.5786C141.621 15.7874 142.135 17.4848 142.135 19.7223V22.4227C142.135 24.5059 142.212 26.6148 142.367 28.7237H138.612C138.56 28.1321 138.509 27.4891 138.483 26.8205C138.458 26.1518 138.432 25.4317 138.406 24.6858H137.995C137.66 25.9203 136.992 26.9748 136.014 27.8235C135.037 28.6722 133.828 29.1094 132.362 29.1094ZM134.111 25.9975C134.626 25.9975 135.14 25.8689 135.68 25.6117C136.22 25.3545 136.683 24.9688 137.12 24.4544C137.557 23.94 137.866 23.2971 138.046 22.4998L138.02 21.1368C137.48 21.3939 136.889 21.5739 136.194 21.6768C135.526 21.7797 134.857 21.9083 134.214 22.0369C133.571 22.1655 133.057 22.3712 132.62 22.6799C132.208 22.9885 132.002 23.4514 132.002 24.0944C132.002 24.6859 132.208 25.1488 132.594 25.4831C132.98 25.8175 133.494 25.9975 134.111 25.9975Z" fill="url(#paint4_linear_10168_13697)"/>
<path d="M145.352 28.6725V19.3625V13.1644H148.849L148.798 18.4881H149.261C149.569 16.5078 150.135 15.0419 150.984 14.116C151.807 13.1902 152.887 12.7529 154.199 12.7529C155.562 12.7529 156.59 13.2159 157.311 14.1674C158.031 15.0933 158.416 16.5592 158.519 18.4881H158.905C159.239 16.4564 159.857 14.9904 160.757 14.0903C161.657 13.1901 162.789 12.7529 164.126 12.7529C165.232 12.7529 166.106 13.0101 166.775 13.5245C167.444 14.0388 167.932 14.7075 168.292 15.5048C168.627 16.302 168.858 17.1765 168.987 18.0509C169.115 18.9511 169.167 19.774 169.167 20.5198V28.6725H164.897V20.957C164.897 20.597 164.872 20.1855 164.846 19.6711C164.795 19.1568 164.717 18.6681 164.589 18.1538C164.46 17.6394 164.229 17.2279 163.894 16.9193C163.56 16.5849 163.123 16.4307 162.557 16.4307C161.606 16.4307 160.834 16.945 160.268 17.9738C159.677 19.0025 159.368 20.3913 159.342 22.1401V28.6725H155.202V21.0856C155.202 20.7256 155.176 20.2884 155.15 19.774C155.099 19.2597 155.022 18.7453 154.893 18.2309C154.764 17.7166 154.533 17.305 154.199 16.9707C153.864 16.6364 153.427 16.4563 152.836 16.4563C151.884 16.4563 151.138 16.9707 150.547 17.9738C149.981 18.9768 149.672 20.3913 149.672 22.1915V28.6983H145.352V28.6725Z" fill="url(#paint5_linear_10168_13697)"/>
<path d="M178.089 29.0329C176.212 29.0329 174.9 28.5185 174.155 27.5155C173.383 26.5125 173.023 25.1237 173.023 23.3491V16.4823H170.914L170.966 13.3447H172.071C172.843 13.2933 173.409 13.1132 173.769 12.8046C174.129 12.4703 174.335 11.9559 174.412 11.2615L174.669 9.66699H177.112V13.1647H180.944V16.6367H177.138V23.1434C177.138 23.9406 177.318 24.5065 177.704 24.7894C178.089 25.0723 178.578 25.2266 179.144 25.2266C179.478 25.2266 179.813 25.1751 180.147 25.098C180.481 25.0208 180.79 24.8665 181.073 24.6865V28.6214C180.456 28.8014 179.915 28.9043 179.427 28.9815C178.938 29.0072 178.501 29.0329 178.089 29.0329Z" fill="url(#paint6_linear_10168_13697)"/>
<path d="M185.755 11.1839C184.032 11.1839 183.184 10.5153 183.184 9.15219C183.184 7.7634 184.032 7.09473 185.755 7.09473C187.479 7.09473 188.327 7.78912 188.327 9.15219C188.327 10.4895 187.479 11.1839 185.755 11.1839ZM183.621 28.6723V13.1385H187.839V28.6723H183.621Z" fill="url(#paint7_linear_10168_13697)"/>
<path d="M189.871 28.6721L194.963 20.9052L189.897 13.1641H194.809L197.561 18.8221H197.972L200.698 13.1641H205.611L200.544 20.9052L205.636 28.6721H200.724L197.947 23.0141H197.561L194.783 28.6721H189.871Z" fill="url(#paint8_linear_10168_13697)"/>
<path d="M58.7312 7.45495L53.6133 5.809C52.8418 5.91187 51.9931 5.98904 51.1186 6.01476C46.8751 6.09191 43.2488 4.9346 43.0174 3.39151C42.9659 3.08289 43.0688 2.77424 43.3003 2.46562L37.7708 0.665341C34.8132 -0.286236 30.2611 -0.209093 27.6121 0.845357L1.84238 14.5275C-0.806609 15.5819 -0.575143 17.2279 2.38246 18.1795L3.2826 18.4624L5.70012 19.2339L8.06621 20.0055C8.70916 19.9283 9.40356 19.8769 10.1237 19.8769C14.3672 19.7997 17.9935 20.957 18.2249 22.5001C18.2507 22.7573 18.1992 23.0146 18.0449 23.246L23.3172 24.9434C26.1976 25.8692 30.5954 25.8178 33.2959 24.8148L45.5378 18.3338L57.8054 11.8271L59.2456 11.0555C59.3485 11.0041 59.4514 10.9784 59.5542 10.9269L60.0943 10.6441C61.8432 9.64104 61.3288 8.30365 58.7312 7.45495ZM34.5561 14.0646L30.544 16.4821L26.5062 14.0646L18.7136 13.7302L17.5305 13.6788L24.0373 11.8014L23.9601 11.647L22.4942 9.12663L30.1325 10.3097L30.544 10.3869L38.5681 9.12663L37.1279 11.647L37.0507 11.7756L43.5575 13.6531L34.5561 14.0646Z" fill="url(#paint9_linear_10168_13697)"/>
<path d="M60.1457 15.8642L59.58 16.1471C59.4771 16.1985 59.3742 16.25 59.2713 16.2757L45.5635 23.554C45.5635 23.554 36.3049 28.4662 33.8874 29.7264C33.3987 29.9835 32.8586 30.1893 32.2928 30.3436C29.6181 31.0122 25.889 30.9609 23.3429 30.1379L18.0706 28.4404C18.2249 28.209 18.2764 27.9518 18.2507 27.6946C18.0192 26.1773 14.3929 24.9942 10.1494 25.0713C9.42928 25.097 8.73488 25.1228 8.09193 25.1999L5.72584 24.4284L2.38246 23.3482C-0.575143 22.3966 -0.806609 20.7507 1.84238 19.6962L1.97097 19.6191L7.93761 21.5479L8.22052 21.5223C8.83776 21.4451 9.48071 21.3937 10.1494 21.3937C10.278 21.3937 10.4066 21.3937 10.5352 21.3937C14.6758 21.3937 16.9647 22.6024 17.0419 23.1168C17.0419 23.1425 17.0162 23.1939 17.0162 23.2196L16.3475 24.2998L22.9057 26.4344C24.3459 26.8973 26.1976 27.1545 28.1265 27.1545C30.1325 27.1545 32.0357 26.8716 33.5016 26.383L34.016 26.1515L46.1293 19.7477L59.1942 12.8037C61.3802 13.6524 61.7146 14.9126 60.1457 15.8642Z" fill="url(#paint10_linear_10168_13697)"/>
<path d="M60.1457 21.0595L59.58 21.3424C59.4771 21.3938 59.3742 21.4453 59.2713 21.471L45.5635 28.7493C45.5635 28.7493 36.3049 33.6615 33.8874 34.9217C33.3987 35.1789 32.8586 35.3846 32.2928 35.539C29.6181 36.2076 25.889 36.1562 23.3429 35.3332L18.0706 33.6358C18.2249 33.4043 18.2764 33.1471 18.2507 32.89C18.0192 31.3726 14.3929 30.1895 10.1494 30.2667C9.42928 30.2924 8.73488 30.3181 8.09193 30.3953L5.72584 29.6237L2.38246 28.5435C-0.575143 27.5919 -0.806609 25.946 1.84238 24.8915L1.97097 24.8144L7.93761 26.7432L8.22052 26.7176C8.83776 26.6404 9.48071 26.589 10.1494 26.589C10.278 26.589 10.4066 26.589 10.5352 26.589C14.6758 26.589 16.9647 27.7977 17.0419 28.3121C17.0419 28.3378 17.0162 28.3892 17.0162 28.4149L16.3475 29.4952L22.9057 31.6297C24.3459 32.0926 26.1976 32.3498 28.1265 32.3498C30.1325 32.3498 32.0357 32.0669 33.5016 31.5783L34.016 31.3469L46.1293 24.943L59.1942 17.999C61.3802 18.8477 61.7146 20.0822 60.1457 21.0595Z" fill="url(#paint11_linear_10168_13697)"/>
<defs>
<linearGradient id="paint0_linear_10168_13697" x1="68.4031" y1="18.9262" x2="84.873" y2="18.9262" gradientUnits="userSpaceOnUse">
<stop stop-color="#0F3240"/>
<stop offset="1" stop-color="#1F5267"/>
</linearGradient>
<linearGradient id="paint1_linear_10168_13697" x1="86.793" y1="20.9217" x2="101.341" y2="20.9217" gradientUnits="userSpaceOnUse">
<stop stop-color="#0F3240"/>
<stop offset="1" stop-color="#1F5267"/>
</linearGradient>
<linearGradient id="paint2_linear_10168_13697" x1="104.299" y1="18.2159" x2="108.497" y2="18.2159" gradientUnits="userSpaceOnUse">
<stop stop-color="#0F3240"/>
<stop offset="1" stop-color="#1F5267"/>
</linearGradient>
<linearGradient id="paint3_linear_10168_13697" x1="111.099" y1="20.9217" x2="125.647" y2="20.9217" gradientUnits="userSpaceOnUse">
<stop stop-color="#0F3240"/>
<stop offset="1" stop-color="#1F5267"/>
</linearGradient>
<linearGradient id="paint4_linear_10168_13697" x1="127.834" y1="20.9217" x2="142.382" y2="20.9217" gradientUnits="userSpaceOnUse">
<stop stop-color="#0F3240"/>
<stop offset="1" stop-color="#1F5267"/>
</linearGradient>
<linearGradient id="paint5_linear_10168_13697" x1="145.34" y1="20.715" x2="169.143" y2="20.715" gradientUnits="userSpaceOnUse">
<stop stop-color="#0F3240"/>
<stop offset="1" stop-color="#1F5267"/>
</linearGradient>
<linearGradient id="paint6_linear_10168_13697" x1="170.916" y1="19.3551" x2="181.058" y2="19.3551" gradientUnits="userSpaceOnUse">
<stop stop-color="#0F3240"/>
<stop offset="1" stop-color="#1F5267"/>
</linearGradient>
<linearGradient id="paint7_linear_10168_13697" x1="183.188" y1="17.8762" x2="188.333" y2="17.8762" gradientUnits="userSpaceOnUse">
<stop stop-color="#0F3240"/>
<stop offset="1" stop-color="#1F5267"/>
</linearGradient>
<linearGradient id="paint8_linear_10168_13697" x1="189.871" y1="20.9216" x2="205.631" y2="20.9216" gradientUnits="userSpaceOnUse">
<stop stop-color="#0F3240"/>
<stop offset="1" stop-color="#1F5267"/>
</linearGradient>
<linearGradient id="paint9_linear_10168_13697" x1="0.0289536" y1="12.8397" x2="61.1251" y2="12.8397" gradientUnits="userSpaceOnUse">
<stop stop-color="#0F3240"/>
<stop offset="1" stop-color="#1F5267"/>
</linearGradient>
<linearGradient id="paint10_linear_10168_13697" x1="0.0289536" y1="21.8325" x2="61.125" y2="21.8325" gradientUnits="userSpaceOnUse">
<stop stop-color="#0F3240"/>
<stop offset="1" stop-color="#1F5267"/>
</linearGradient>
<linearGradient id="paint11_linear_10168_13697" x1="0.0289536" y1="27.0182" x2="61.125" y2="27.0182" gradientUnits="userSpaceOnUse">
<stop stop-color="#0F3240"/>
<stop offset="1" stop-color="#1F5267"/>
</linearGradient>
</defs>
</svg>
